<?xml version="1.0" encoding="UTF-8" standalone="no"?>
<!DOCTYPE svg PUBLIC "-//W3C//DTD SVG 1.1//EN" "http://www.w3.org/Graphics/SVG/1.1/DTD/svg11.dtd">
<svg width="100%" height="100%" viewBox="0 0 413 102" version="1.1" xmlns="http://www.w3.org/2000/svg" xmlns:xlink="http://www.w3.org/1999/xlink" xml:space="preserve" xmlns:serif="http://www.serif.com/" style="fill-rule:evenodd;clip-rule:evenodd;stroke-linejoin:round;stroke-miterlimit:2;">
  <g transform="matrix(1,0,0,1,-328.88,-426.138)">
    <g transform="matrix(0.619017,0,0,0.619017,-4.73328,44.7977)">
      <path d="M815.206,755.513C811.458,755.513 808.433,754.362 806.131,752.059C803.829,749.757 802.678,746.732 802.678,742.984L802.678,653.037C802.678,649.289 803.695,646.398 805.73,644.363C807.764,642.328 810.655,641.311 814.403,641.311L869.657,641.311C873.726,641.311 876.724,642.114 878.652,643.721C880.579,645.327 881.543,647.843 881.543,651.27C881.543,654.589 880.579,657.052 878.652,658.658C876.724,660.264 873.726,661.068 869.657,661.068L827.413,661.068L827.413,687.088L866.444,687.088C870.513,687.088 873.512,687.891 875.439,689.498C877.367,691.104 878.33,693.62 878.33,697.047C878.33,700.366 877.367,702.829 875.439,704.435C873.512,706.042 870.513,706.845 866.444,706.845L827.413,706.845L827.413,742.984C827.413,746.839 826.316,749.891 824.121,752.14C821.926,754.388 818.954,755.513 815.206,755.513Z" style="fill-rule:nonzero;" />
    </g>
    <g transform="matrix(0.619017,0,0,0.619017,-4.73328,44.7977)">
      <path d="M911.258,755.513C907.724,755.513 904.806,754.549 902.504,752.622C900.202,750.694 899.05,747.857 899.05,744.109L899.05,685.482C899.05,681.734 900.228,678.897 902.584,676.969C904.94,675.042 907.831,674.078 911.258,674.078C914.684,674.078 917.549,675.042 919.851,676.969C922.153,678.897 923.304,681.734 923.304,685.482L923.304,744.109C923.304,747.857 922.153,750.694 919.851,752.622C917.549,754.549 914.684,755.513 911.258,755.513ZM911.258,661.228C906.974,661.228 903.601,660.131 901.139,657.935C898.676,655.74 897.444,652.769 897.444,649.021C897.444,645.273 898.676,642.328 901.139,640.187C903.601,638.045 906.974,636.974 911.258,636.974C915.434,636.974 918.78,638.072 921.296,640.267C923.813,642.462 925.071,645.38 925.071,649.021C925.071,652.769 923.84,655.74 921.377,657.935C918.914,660.131 915.541,661.228 911.258,661.228Z" style="fill-rule:nonzero;" />
    </g>
    <g transform="matrix(0.619017,0,0,0.619017,-4.73328,44.7977)">
      <path d="M1009.24,640.508C1012.98,640.508 1016.01,641.525 1018.31,643.56C1020.61,645.594 1021.76,648.271 1021.76,651.591L1021.76,744.109C1021.76,747.535 1020.67,750.293 1018.47,752.381C1016.28,754.469 1013.36,755.513 1009.72,755.513C1006.08,755.513 1003.16,754.469 1000.97,752.381C998.769,750.293 997.672,747.535 997.672,744.109L997.672,742.824C995.316,746.893 991.97,750.078 987.633,752.381C983.296,754.683 978.397,755.834 972.936,755.834C966.19,755.834 960.167,754.094 954.866,750.614C949.566,747.134 945.443,742.262 942.498,735.997C939.554,729.733 938.081,722.532 938.081,714.394C938.081,706.256 939.554,699.108 942.498,692.951C945.443,686.794 949.539,682.055 954.786,678.736C960.033,675.416 966.083,673.757 972.936,673.757C978.29,673.757 983.136,674.881 987.472,677.13C991.809,679.378 995.155,682.537 997.511,686.606L997.511,651.109C997.511,647.897 998.582,645.327 1000.72,643.399C1002.87,641.472 1005.7,640.508 1009.24,640.508ZM980.004,737.363C985.679,737.363 990.042,735.408 993.094,731.5C996.146,727.591 997.672,721.997 997.672,714.715C997.672,707.434 996.146,701.865 993.094,698.01C990.042,694.156 985.679,692.228 980.004,692.228C974.328,692.228 969.938,694.129 966.833,697.93C963.727,701.731 962.175,707.219 962.175,714.394C962.175,721.675 963.727,727.324 966.833,731.339C969.938,735.355 974.328,737.363 980.004,737.363Z" style="fill-rule:nonzero;" />
    </g>
    <g transform="matrix(0.619017,0,0,0.619017,-4.73328,44.7977)">
      <path d="M1193.47,674.078C1197.22,674.078 1200.19,675.095 1202.38,677.13C1204.58,679.164 1205.68,681.948 1205.68,685.482L1205.68,744.43C1205.68,747.749 1204.53,750.426 1202.22,752.461C1199.92,754.496 1196.95,755.513 1193.31,755.513C1189.88,755.513 1187.15,754.549 1185.12,752.622C1183.08,750.694 1182.07,748.124 1182.07,744.912L1182.07,743.306C1179.6,747.375 1176.36,750.48 1172.35,752.622C1168.33,754.763 1163.81,755.834 1158.78,755.834C1148.82,755.834 1141.4,753.077 1136.53,747.562C1131.66,742.047 1129.22,733.722 1129.22,722.585L1129.22,685.482C1129.22,681.948 1130.32,679.164 1132.51,677.13C1134.71,675.095 1137.68,674.078 1141.43,674.078C1145.18,674.078 1148.12,675.095 1150.26,677.13C1152.4,679.164 1153.47,681.948 1153.47,685.482L1153.47,723.067C1153.47,727.779 1154.46,731.259 1156.45,733.508C1158.43,735.756 1161.45,736.881 1165.52,736.881C1170.23,736.881 1174.06,735.275 1177.01,732.062C1179.95,728.85 1181.42,724.62 1181.42,719.373L1181.42,685.482C1181.42,681.948 1182.49,679.164 1184.63,677.13C1186.78,675.095 1189.72,674.078 1193.47,674.078Z" style="fill-rule:nonzero;" />
    </g>
    <g transform="matrix(0.619017,0,0,0.619017,101.808,379.714)">
      <path d="M941.188,103.297C943.447,100.848 946.083,99.624 949.096,99.624C952.094,99.624 954.798,100.775 957.207,103.077C959.616,105.379 960.821,108.029 960.821,111.028C960.821,113.705 959.804,116.221 957.769,118.577L891.205,201.732C889.208,204.548 886.273,208.551 883.263,211.381C881.004,213.83 878.368,215.054 875.355,215.054C872.357,215.054 869.653,213.903 867.244,211.601C864.834,209.299 863.63,206.649 863.63,203.65C863.63,200.973 864.647,198.457 866.682,196.101L897.172,159.902L862.682,118.577C860.647,116.435 859.63,113.919 859.63,111.028C859.63,108.029 860.781,105.379 863.083,103.077C865.385,100.775 868.036,99.624 871.034,99.624C874.246,99.624 877.03,101.016 879.386,103.8L910.065,141.224L933.246,112.946C935.243,110.13 938.178,106.127 941.188,103.297Z" style="fill-rule:nonzero;" />
    </g>
    <g transform="matrix(7.82357e-17,1.27769,-1.29277,7.91596e-17,1028.64,-263.812)">
      <path d="M619.787,433.471C619.787,429.862 616.826,426.936 613.174,426.936L546.612,426.936C542.96,426.936 540,429.862 540,433.471L540,534.75C540,538.359 542.96,541.285 546.612,541.285L613.174,541.285C616.826,541.285 619.787,538.359 619.787,534.75L619.787,433.471Z" style="fill:rgb(0,126,255);" />
    </g>
    <g transform="matrix(1,0,0,1,4,-5.68434e-14)">
      <g transform="matrix(0.618157,0,0,0.618157,-112.543,-60.6459)">
        <path d="M783.804,858.375L783.813,858.391L783.813,822.893C783.813,819.681 784.884,817.111 787.026,815.184C789.167,813.256 792.005,812.292 795.539,812.292C799.287,812.292 802.312,813.31 804.614,815.344C806.916,817.379 808.067,820.056 808.067,823.375L808.067,915.893C808.067,919.32 806.97,922.077 804.774,924.165C802.579,926.253 799.661,927.297 796.021,927.297C792.38,927.297 789.462,926.253 787.267,924.165C785.072,922.077 783.974,919.32 783.974,915.893L783.974,914.608C783.918,914.704 783.862,914.8 783.804,914.896L783.804,858.375Z" style="fill:white;fill-rule:nonzero;" />
      </g>
      <g transform="matrix(0.618157,0,0,0.618157,-138.249,379.995)">
        <path d="M910.065,141.224L925.114,159.371L891.205,201.732C889.208,204.548 886.273,208.551 883.263,211.381C881.004,213.83 878.368,215.054 875.355,215.054C872.357,215.054 869.653,213.903 867.244,211.601C864.834,209.299 863.63,206.649 863.63,203.65C863.63,200.973 864.647,198.457 866.682,196.101L897.172,159.902L862.682,118.577C860.647,116.435 859.63,113.919 859.63,111.028C859.63,108.029 860.781,105.379 863.083,103.077C865.385,100.775 868.036,99.624 871.034,99.624C874.246,99.624 877.03,101.016 879.386,103.8L910.065,141.224Z" style="fill:white;fill-rule:nonzero;" />
      </g>
    </g>
  </g>
</svg>